<svg width="50" height="40" viewBox="0 0 50 40" fill="none" xmlns="http://www.w3.org/2000/svg">
<path d="M6.55252 31.6247L5.73695 33.0231C5.10851 32.5948 4.25755 32.3374 3.5146 32.3374C2.66551 32.3374 2.13948 32.6803 2.13948 33.2949C2.13948 34.0418 3.0733 34.2154 4.46052 34.7014C5.95201 35.2161 6.80948 35.8208 6.80948 37.1526C6.80948 38.9757 5.3394 39.9998 3.22692 39.9998C2.19721 39.9998 0.955226 39.7406 0 39.1746L0.594922 37.6241C1.37046 38.0246 2.29869 38.2612 3.12543 38.2612C4.23987 38.2612 4.77055 37.8599 4.77055 37.2669C4.77055 36.5884 3.96242 36.3841 2.65806 35.963C1.17122 35.477 0.141515 34.8417 0.141515 33.3669C0.141515 31.7039 1.50732 30.7491 3.47177 30.7491C4.84037 30.7482 5.94177 31.1721 6.55252 31.6247Z" fill="white"/>
<path d="M12.9279 32.5085V39.846H11.0072V32.5085H8.21973V30.9022H15.707V32.5085H12.9279Z" fill="white"/>
<path d="M19.7552 32.5031V34.5188H23.43V36.125H19.7552V38.2244H24.0193V39.846H17.8354V30.9022H24.0193V32.5031H19.7552Z" fill="white"/>
<path d="M30.0795 33.0358L28.8273 36.6164H31.3578L30.0795 33.0358ZM28.3059 38.1092L27.6989 39.846H25.686L29.1243 30.9022H31.0571L34.5931 39.846H32.5113L31.8913 38.1092H28.3059Z" fill="white"/>
<path d="M44.4482 34.3586L41.9391 39.585H40.8554L38.3864 34.4054V39.846H36.5476V30.9022H38.3817L41.4643 37.3579L44.4361 30.9022H46.287V39.846H44.4482V34.3586Z" fill="white"/>
<path d="M48.5131 31.9664H48.7375C48.8828 31.9664 48.9684 31.8773 48.9684 31.7657C48.9684 31.6532 48.907 31.5803 48.7375 31.5803H48.5141V31.9664H48.5131ZM48.7496 31.3941C49.0783 31.3941 49.1881 31.5641 49.1881 31.7468C49.1881 31.9151 49.0857 32.0276 48.9619 32.0852L49.2561 32.6233H49.015L48.7664 32.1455H48.5104V32.6233H48.3093V31.3932H48.7496V31.3941ZM47.6734 32.0303C47.6734 32.6737 48.1482 33.0768 48.7319 33.0768C49.3138 33.0768 49.7868 32.6728 49.7868 32.0303C49.7868 31.3851 49.3138 30.9873 48.7319 30.9873C48.1491 30.9873 47.6734 31.3896 47.6734 32.0303ZM50 32.0303C50 32.7988 49.4097 33.2775 48.7319 33.2775C48.0523 33.2775 47.4592 32.7988 47.4592 32.0303C47.4592 31.2618 48.0514 30.7858 48.7319 30.7858C49.4097 30.7858 50 31.2618 50 32.0303Z" fill="white"/>
<path d="M28.7273 12.1464C30.4757 12.1464 31.8983 10.7696 31.8983 9.07603C31.8983 7.38428 30.4757 6.00659 28.7273 6.00659C26.9797 6.00659 25.5571 7.38428 25.5571 9.07603C25.5562 10.7696 26.9797 12.1464 28.7273 12.1464ZM28.7319 6.76518C30.0474 6.76518 31.1144 7.79822 31.1144 9.07153C31.1144 10.3448 30.0474 11.377 28.7319 11.377C27.4173 11.377 26.3513 10.3448 26.3513 9.07153C26.3513 7.79822 27.4182 6.76518 28.7319 6.76518Z" fill="white"/>
<path d="M19.727 19.197C21.0919 19.7468 22.6634 19.1205 23.2323 17.7986C23.5079 17.1606 23.5088 16.4533 23.2369 15.8135C22.9651 15.1728 22.4511 14.6725 21.7901 14.4062C21.1338 14.1425 20.4318 14.1506 19.8136 14.3774L21.4149 15.019C22.4214 15.4239 22.898 16.5424 22.4782 17.517C22.0592 18.4897 20.9047 18.9514 19.8974 18.5464L18.3481 17.9255C18.6219 18.4789 19.0976 18.9433 19.727 19.197Z" fill="white"/>
<path d="M24.614 0C17.974 0 12.5415 4.99245 12.1123 11.305C12.1142 11.3077 12.116 11.3104 12.1179 11.314V11.3122L18.8501 13.9911C19.0335 13.875 19.2281 13.7742 19.4366 13.6914C19.9096 13.5034 20.4077 13.4188 20.9039 13.4413L23.9698 9.13723C23.9688 9.11833 23.9688 9.09763 23.9688 9.07693C23.9688 6.53662 26.1037 4.46963 28.7273 4.46963C31.3528 4.46963 33.4857 6.53662 33.4857 9.07693C33.4857 11.6173 31.3518 13.6851 28.7273 13.6851C28.6919 13.6851 28.6556 13.6842 28.6193 13.6833L24.2323 16.7132C24.2454 17.1811 24.156 17.6499 23.9642 18.0963C23.2287 19.806 21.1898 20.6204 19.4217 19.9059C18.3408 19.4704 17.6081 18.5651 17.3698 17.533L12.6272 15.6414C14.1913 20.606 18.9655 24.2181 24.6131 24.2181C31.5325 24.2181 37.1418 18.7964 37.1418 12.1086C37.1418 5.42169 31.5325 0 24.614 0Z" fill="white"/>
</svg>
